<svg width="20" height="23" viewBox="0 0 20 23" fill="none" xmlns="http://www.w3.org/2000/svg">
<path d="M5 5C5 2.23839 7.23661 0 10 0C12.7634 0 15 2.23839 15 5V7.14286H17.8571C19.0402 7.14286 20 8.10268 20 9.28571V18.5714C20 20.9375 18.0804 22.8571 15.7143 22.8571H4.28571C1.91875 22.8571 0 20.9375 0 18.5714V9.28571C0 8.10268 0.959375 7.14286 2.14286 7.14286H5V5ZM7.14286 7.14286H12.8571V5C12.8571 3.42187 11.5759 2.14286 10 2.14286C8.42411 2.14286 7.14286 3.42187 7.14286 5V7.14286ZM6.07143 11.4286C6.66518 11.4286 7.14286 10.9509 7.14286 10.3571C7.14286 9.76339 6.66518 9.28571 6.07143 9.28571C5.47768 9.28571 5 9.76339 5 10.3571C5 10.9509 5.47768 11.4286 6.07143 11.4286ZM13.9286 9.28571C13.3348 9.28571 12.8571 9.76339 12.8571 10.3571C12.8571 10.9509 13.3348 11.4286 13.9286 11.4286C14.5223 11.4286 15 10.9509 15 10.3571C15 9.76339 14.5223 9.28571 13.9286 9.28571Z" fill="#838383"/>
</svg>
